<?xml version="1.0" encoding="utf-8"?>
<!-- Generator: Adobe Illustrator 24.2.1, SVG Export Plug-In . SVG Version: 6.00 Build 0)  -->
<svg version="1.1" id="Layer_1" xmlns="http://www.w3.org/2000/svg" xmlns:xlink="http://www.w3.org/1999/xlink" x="0px" y="0px"
	 viewBox="0 0 350.4 105.1" style="enable-background:new 0 0 350.4 105.1;" xml:space="preserve">
<style type="text/css">
	.st0{fill:#000000;}
</style>
<g>
	<g>
		<path class="st0" d="M84.4,44.9c12.3,0,22.3-9.8,22.3-21.9c0-12.1-10-21.9-22.3-21.9c-12.3,0-22.3,9.8-22.3,21.9
			C62.1,35.1,72.1,44.9,84.4,44.9z"/>
	</g>
	<g>
		<ellipse class="st0" cx="24.1" cy="82.1" rx="22.3" ry="21.9"/>
	</g>
	<g>
		<path class="st0" d="M84.4,60.2c-20,0-38-15.8-38-37.2c0-12.1-10-21.9-22.3-21.9S1.8,10.9,1.8,23c0,12.1,10.2,21.9,22.3,21.9
			c22.5,0,38,18,38,37.2c0,12.2,10,21.9,22.3,21.9c12.3,0,22.3-9.8,22.3-21.9C106.7,70,96.9,60.2,84.4,60.2z"/>
	</g>
	<g>
		<path class="st0" d="M162.7,44.5l-5.2-1.8c-3.2-1.1-8.6-2.8-8.6-8.5c0-4.7,3.7-7.8,9.5-7.8c6.3,0,10.5,3.9,11.2,10.5l0.1,0.4h3.7
			V26.7l-0.3-0.1c-4.7-2.7-9.8-4.1-14.8-4.1c-7.7,0-16,3.5-16,13.5c0,9.6,7.7,12.3,12.9,14l4.8,1.6c3.6,1.2,9.1,3,9.1,9.1
			c0,5-3.8,8.1-10.2,8.1c-7.3,0-11.5-4.4-12-12.7l0-0.5h-3.8v12l0.2,0.1c4.2,3.4,9.8,5.2,15.7,5.2c10.3,0,16.9-5.6,16.9-14.3
			C176,49.7,169.7,46.9,162.7,44.5z"/>
		<path class="st0" d="M200.7,36.9c-4.7,0-8.4,2.1-10.4,5.6v-5h-11.8v3.8h3.5c1.5,0,1.8,0.4,1.8,2.4v36.2c0,2.1-0.5,2.5-1.8,2.5
			h-3.5v3.5h19.6v-3.5h-5.7c-1.5,0-1.9-0.6-1.9-2.5v-12c1.9,2.5,5,3.8,8.9,3.8c9,0,14.8-7.2,14.8-18.2
			C214.1,43.3,208.9,36.9,200.7,36.9z M198.9,41.7c4.9,0,7.8,4.6,7.8,12.5c0,3.9-0.8,13-8.2,13c-5,0-8.1-4.1-8.1-11v-2.2
			C190.4,46.4,193.6,41.7,198.9,41.7z"/>
		<path class="st0" d="M234.3,36.9c-9.5,0-15.1,6.8-15.1,18.3c0,11,5.3,17.3,14.4,17.3c7.5,0,12.2-4.1,13.2-11.5l0.1-0.6h-3.7
			l-0.1,0.4c-1.2,6.7-6.2,7.5-8.3,7.5c-5.6,0-8.4-4.4-8.5-13.1h21.1l0-0.5c0.1-0.8,0.1-1.8,0.1-2.7
			C247.5,42.3,242.8,36.9,234.3,36.9z M234,40.7c5.1,0,6.3,5.4,6.4,10.1h-13.9C227.1,44.3,229.8,40.7,234,40.7z"/>
		<path class="st0" d="M264,44.2v-6.6h-11.8v3.8h3.5c1.5,0,1.9,0.5,1.9,2.5v22c0,1.9-0.4,2.5-1.9,2.5h-3.5v3.5h19.4v-3.5h-5.5
			c-1.5,0-1.9-0.5-1.9-2.5V54.7c0-7.3,3.3-11,9.9-11h2v-6.5h-2.4C269.5,37.1,266,39.7,264,44.2z"/>
		<path class="st0" d="M294.8,36.9c-4.3,0-8.3,1-12,3l-0.3,0.1v9.6h3.8l0.1-0.4c0.6-5.2,3.7-8.4,8-8.4c3.8,0,5.8,2.3,5.8,6.7v3.1
			l-8.7,1c-7,0.8-11.2,4.8-11.2,10.8c0,5.9,4.1,10.1,9.9,10.1c4.6,0,8.4-2.5,10.9-7l2.3,6.3h3.5V47C307,40.4,302.8,36.9,294.8,36.9z
			 M292.3,67.6c-2.9,0-4.8-2.2-4.8-5.7c0-3.9,2.2-6.1,6.6-6.6l6.3-0.7v0.8C300.3,62.2,296.8,67.6,292.3,67.6z"/>
		<path class="st0" d="M346.4,68.2c-1.7,0-2.9-1.3-3.8-2.5l-9.1-11.9l8.9-11.6c0.5-0.6,1.3-1.2,3.2-1.2h1.9v-3.5h-14.1V41h3.1
			c0.3,0,0.9,0.1,0.9,0.6c0,0.2-0.1,0.5-0.3,0.8l-6.3,8.2l-6.2-8.2c-0.2-0.2-0.3-0.5-0.3-0.7c0-0.3,0.4-0.6,1.1-0.6h2.6v-3.5h-16.3
			V41h2c1.6,0,2.2,0.6,3,1.6l9.5,12.3L318,65.7c-0.9,1.2-2.2,2.6-4.5,2.6H312v3.5h14.5v-3.5h-2.9c-0.6,0-1.4-0.1-1.4-0.8
			c0-0.2,0.1-0.7,0.5-1.2l6.1-8l6.2,8.2c0.3,0.3,0.4,0.7,0.4,1c0,0.6-0.7,0.7-1.3,0.7h-2.3v3.5h16.7v-3.5H346.4z"/>
	</g>
</g>
</svg>
